<!-- SVG Illustration: Barcode Scanning and Database Lookup -->
<svg width="600" height="400" viewBox="0 0 600 400" xmlns="http://www.w3.org/2000/svg" style="font-family:sans-serif;">

  <!-- Background -->
  <rect width="600" height="400" fill="#f7f7f7"/>

  <!-- Barcode Scanner -->
  <g transform="translate(30,120)">
    <!-- Barcode -->
    <rect x="0" y="40" width="80" height="60" fill="#eee" stroke="#999" />
    <!-- Barcode lines -->
    <rect x="10" y="45" width="2" height="50" fill="#333"/>
    <rect x="18" y="45" width="2" height="50" fill="#333"/>
    <rect x="26" y="45" width="2" height="50" fill="#333"/>
    <rect x="34" y="45" width="2" height="50" fill="#333"/>
    <rect x="42" y="45" width="2" height="50" fill="#333"/>
    <rect x="50" y="45" width="2" height="50" fill="#333"/>
    <rect x="58" y="45" width="2" height="50" fill="#333"/>
    <rect x="66" y="45" width="2" height="50" fill="#333"/>
    <text x="0" y="20" font-size="14" fill="#333">Scanning Barcode</text>
    <!-- Scanner beam -->
    <line x1="90" y1="70" x2="160" y2="70" stroke="#e74c3c" stroke-width="2" stroke-dasharray="4,4" />
  </g>

  <!-- POS Device -->
  <g transform="translate(170,70)">
    <!-- POS Body -->
    <rect x="0" y="0" width="140" height="200" rx="10" fill="#ffffff" stroke="#ccc"/>
    <!-- Screen -->
    <rect x="15" y="20" width="110" height="60" fill="#eaf2fa" stroke="#ccc"/>
    <text x="70" y="55" text-anchor="middle" font-size="12" fill="#333">POS</text>
    <!-- Local DB indicator -->
    <text x="70" y="100" text-anchor="middle" font-size="12" fill="#333">Local DB</text>
    <text x="70" y="115" text-anchor="middle" font-size="10" fill="#666">50 of 1000</text>

    <!-- Local products (small subset) -->
    <g transform="translate(50,130)">
      <!-- Show a small stack of rectangles -->
      <rect x="0" y="0" width="10" height="10" fill="#3498db"/>
      <rect x="12" y="0" width="10" height="10" fill="#3498db"/>
      <rect x="24" y="0" width="10" height="10" fill="#3498db"/>
      <rect x="36" y="0" width="10" height="10" fill="#3498db"/>
      <rect x="0" y="12" width="10" height="10" fill="#3498db"/>
      <rect x="12" y="12" width="10" height="10" fill="#3498db"/>
      <rect x="24" y="12" width="10" height="10" fill="#3498db"/>
      <rect x="36" y="12" width="10" height="10" fill="#3498db"/>
      <!-- Just 8 shown to represent a small subset -->
    </g>
  </g>

  <!-- Arrow from Barcode to POS -->
  <line x1="110" y1="160" x2="170" y2="160" stroke="#555" stroke-width="2" marker-end="url(#arrow)"/>
  <text x="140" y="150" text-anchor="middle" font-size="10" fill="#333">No Local Match?</text>

  <!-- Querying Server -->
  <!-- Server Cloud -->
  <g transform="translate(380,80)">
    <!-- Cloud -->
    <path d="M60 60
             C50 50, 30 50, 20 60
             C10 60,  10 80, 20 90
             C20 100, 30 110, 45 110
             C55 120, 75 120, 85 110
             C100 110,110 100,110 90
             C120 85, 120 70,110 65
             C100 55,  80 50, 70 55
             Z"
          fill="#ecf0f1" stroke="#ccc"/>
    <text x="65" y="85" font-size="10" text-anchor="middle" fill="#333">Server</text>
    <text x="65" y="98" font-size="9" text-anchor="middle" fill="#666">1000 of 1000</text>
    <!-- Server products (larger set) -->
    <g transform="translate(20,20)">
      <!-- More dense grid of products -->
      <rect x="0" y="0" width="5" height="5" fill="#2ecc71"/>
      <rect x="6" y="0" width="5" height="5" fill="#2ecc71"/>
      <rect x="12" y="0" width="5" height="5" fill="#2ecc71"/>
      <rect x="18" y="0" width="5" height="5" fill="#2ecc71"/>
      <rect x="24" y="0" width="5" height="5" fill="#2ecc71"/>
      <rect x="0" y="6" width="5" height="5" fill="#2ecc71"/>
      <rect x="6" y="6" width="5" height="5" fill="#2ecc71"/>
      <rect x="12" y="6" width="5" height="5" fill="#2ecc71"/>
      <rect x="18" y="6" width="5" height="5" fill="#2ecc71"/>
      <rect x="24" y="6" width="5" height="5" fill="#2ecc71"/>
      <rect x="0" y="12" width="5" height="5" fill="#2ecc71"/>
      <rect x="6" y="12" width="5" height="5" fill="#2ecc71"/>
      <rect x="12" y="12" width="5" height="5" fill="#2ecc71"/>
      <rect x="18" y="12" width="5" height="5" fill="#2ecc71"/>
      <rect x="24" y="12" width="5" height="5" fill="#2ecc71"/>
      <!-- More could be added to represent abundance -->
    </g>
  </g>

  <!-- Arrow from POS to Server -->
  <line x1="310" y1="160" x2="380" y2="160" stroke="#555" stroke-width="2" marker-end="url(#arrow)"/>
  <text x="345" y="150" text-anchor="middle" font-size="10" fill="#333">Searching Online...</text>

  <!-- Arrow from Server back to POS -->
  <line x1="380" y1="200" x2="310" y2="200" stroke="#555" stroke-width="2" marker-end="url(#arrowBack)"/>
  <text x="345" y="210" text-anchor="middle" font-size="10" fill="#333">Product Found</text>

  <!-- Arrow markers -->
  <defs>
    <marker id="arrow" markerWidth="10" markerHeight="10" refX="6" refY="3" orient="auto">
      <path d="M0,0 L0,6 L6,3 z" fill="#555"/>
    </marker>
    <marker id="arrowBack" markerWidth="10" markerHeight="10" refX="0" refY="3" orient="auto" >
      <path d="M6,0 L6,6 L0,3 z" fill="#555"/>
    </marker>
  </defs>

</svg>
