<svg xmlns="http://www.w3.org/2000/svg" viewBox="0 190 800 220" overflow="hidden" preserveAspectRatio="xMidYMid meet" id="eaf-caa3-0"><defs><clipPath id="eaf-caa3-1"><rect x="0" y="0" width="800" height="600"></rect></clipPath></defs><g clip-path="url('#eaf-caa3-1')" style="isolation: isolate;"><g><g transform="matrix(0 0.3225 -0.3225 0 185.2663 227.5539)"><path fill="#000" d="m372.72 0l-301.461 0c-14.48 0 -26.261 11.781 -26.261 26.261l0 391.457c0 14.48 11.78 26.261 26.261 26.261l301.461 0c14.48 0 26.261 -11.781 26.261 -26.261l0 -391.457c0 -14.48 -11.781 -26.261 -26.261 -26.261zm11.261 417.718c0 6.209 -5.052 11.261 -11.261 11.261l-301.461 0c-6.209 0 -11.261 -5.052 -11.261 -11.261l0 -391.457c0 -6.209 5.052 -11.261 11.261 -11.261l301.461 0c6.209 0 11.261 5.052 11.261 11.261l0 391.457z"></path><path fill="#000" d="m368.982 47.908l-293.985 0c-2.761 0 -5 2.239 -5 5l0 338.163c0 2.761 2.239 5 5 5l293.985 0c2.761 0 5 -2.239 5 -5l0 -338.163c0 -2.762 -2.239 -5 -5 -5l0 0zm-5 338.163l-283.985 0l0 -328.163l283.985 0l0 328.163z"></path><path fill="#000" d="m221.992 406.478c-1.98 0 -3.91 0.8 -5.31 2.2c-1.39 1.39 -2.19 3.33 -2.19 5.3c0 1.97 0.8 3.91 2.19 5.3c1.4 1.4 3.33 2.2 5.31 2.2c1.97 0 3.91 -0.8 5.3 -2.2c1.4 -1.39 2.2 -3.33 2.2 -5.3c0 -1.97 -0.8 -3.91 -2.2 -5.3c-1.4 -1.4 -3.33 -2.2 -5.3 -2.2z"></path><path fill="#000" d="m221.992 37.248c1.31 0 2.6 -0.53 3.53 -1.46c0.93 -0.93 1.47 -2.22 1.47 -3.54c0 -1.32 -0.54 -2.6 -1.47 -3.54c-0.93 -0.93 -2.22 -1.46 -3.53 -1.46c-1.32 0 -2.61 0.53 -3.54 1.46c-0.93 0.93 -1.46 2.22 -1.46 3.54c0 1.32 0.53 2.61 1.46 3.54c0.93 0.93 2.22 1.46 3.54 1.46z"></path></g><g transform="matrix(0.0429 0 0 0.0429 95.4723 287.4264)"><path fill="#323a46" d="m0 90q0 -90 90 -90l1080 0q90 0 90 90l0 810q0 90 -90 90l-810 0l-360 270l0 -1170z" transform="translate(-230 -330)"></path><g transform="translate(-230 -330)"><path fill="#cd2c24" d="m0 90q0 -90 90 -90l90 0l0 270q0 8.8642 -1.7293 17.5581q-1.7293 8.6939 -5.1215 16.8834q-3.3922 8.1895 -8.3169 15.5598q-4.9247 7.3703 -11.1927 13.6383q-6.268 6.2679 -13.6383 11.1926q-7.3703 4.9247 -15.5598 8.3169q-8.1895 3.3922 -16.8834 5.1215q-8.6939 1.7293 -17.5581 1.7293q-8.8642 0 -17.5581 -1.7293q-8.6939 -1.7293 -16.8834 -5.1216q-8.1895 -3.3922 -15.5598 -8.3169q-7.3703 -4.9247 -13.6383 -11.1927q-6.268 -6.268 -11.1927 -13.6383q-4.9247 -7.3704 -8.3169 -15.5598q-3.3922 -8.1895 -5.1215 -16.8834q-1.7293 -8.6939 -1.7293 -17.5581l0 -180zm360 -90l180 0l0 270q0 8.8642 -1.7294 17.5581q-1.7294 8.6939 -5.1216 16.8834q-3.3922 8.1895 -8.3169 15.5598q-4.9246 7.3703 -11.1926 13.6383q-6.2679 6.2679 -13.6383 11.1926q-7.3704 4.9247 -15.5598 8.3169q-8.1895 3.3922 -16.8834 5.1215q-8.6939 1.7293 -17.5581 1.7293q-8.8643 0 -17.5582 -1.7293q-8.6939 -1.7293 -16.8834 -5.1216q-8.1895 -3.3922 -15.5598 -8.3169q-7.3703 -4.9247 -13.6382 -11.1927q-6.268 -6.268 -11.1927 -13.6383q-4.9247 -7.3704 -8.3169 -15.5598q-3.3922 -8.1895 -5.1215 -16.8834q-1.7293 -8.6939 -1.7293 -17.5581l0 -270zm360 0l180 0l0 270q-0.0001 8.8642 -1.7294 17.5581q-1.7293 8.6939 -5.1215 16.8834q-3.3922 8.1895 -8.3169 15.5598q-4.9247 7.3703 -11.1926 13.6383q-6.2679 6.2679 -13.6383 11.1926q-7.3704 4.9247 -15.5598 8.3169q-8.1895 3.3922 -16.8833 5.1215q-8.6939 1.7293 -17.5581 1.7293q-8.8643 0 -17.5582 -1.7293q-8.694 -1.7293 -16.8834 -5.1216q-8.1895 -3.3922 -15.5599 -8.3169q-7.3702 -4.9247 -13.6382 -11.1927q-6.2679 -6.268 -11.1927 -13.6383q-4.9247 -7.3704 -8.3169 -15.5598q-3.3922 -8.1895 -5.1215 -16.8834q-1.7292 -8.6939 -1.7292 -17.5581l0 -270zm360 0l90 0q90 0 90 90l0 180q0 8.8642 -1.7294 17.5581q-1.7294 8.6939 -5.1216 16.8834q-3.3922 8.1895 -8.3169 15.5598q-4.9247 7.3703 -11.1926 13.6383q-6.2679 6.2679 -13.6383 11.1926q-7.3704 4.9247 -15.5598 8.3169q-8.1895 3.3922 -16.8834 5.1215q-8.6938 1.7293 -17.558 1.7293q-8.8643 0 -17.5582 -1.7293q-8.694 -1.7293 -16.8834 -5.1216q-8.1895 -3.3922 -15.5597 -8.3169q-7.3704 -4.9247 -13.6383 -11.1927q-6.2681 -6.268 -11.1926 -13.6383q-4.9248 -7.3704 -8.317 -15.5598q-3.3922 -8.1895 -5.1215 -16.8834q-1.7292 -8.6939 -1.7292 -17.5581l0 -270z"></path></g><g transform="translate(-230 -330)"><path fill="#f5e5c0" d="m180 0l180 0l0 270q0 8.8642 -1.7293 17.5581q-1.7293 8.6939 -5.1216 16.8834q-3.3922 8.1895 -8.3169 15.5598q-4.9247 7.3703 -11.1927 13.6383q-6.268 6.2679 -13.6383 11.1926q-7.3704 4.9247 -15.5598 8.3169q-8.1895 3.3922 -16.8834 5.1215q-8.6939 1.7293 -17.5581 1.7293q-8.8642 0 -17.5581 -1.7293q-8.6939 -1.7293 -16.8834 -5.1216q-8.1895 -3.3922 -15.5598 -8.3169q-7.3703 -4.9247 -13.6383 -11.1927q-6.268 -6.268 -11.1927 -13.6383q-4.9247 -7.3704 -8.3169 -15.5598q-3.3922 -8.1895 -5.1215 -16.8834q-1.7293 -8.6939 -1.7293 -17.5581l0 -270zm360 0l180 0l0 270q0 8.8642 -1.7294 17.5581q-1.7294 8.6939 -5.1216 16.8834q-3.3922 8.1895 -8.3169 15.5598q-4.9247 7.3703 -11.1926 13.6383q-6.2679 6.2679 -13.6383 11.1926q-7.3704 4.9247 -15.5598 8.3169q-8.1895 3.3922 -16.8833 5.1215q-8.6938 1.7293 -17.5581 1.7293q-8.8643 0 -17.5581 -1.7293q-8.694 -1.7293 -16.8834 -5.1216q-8.1895 -3.3922 -15.5598 -8.3169q-7.3704 -4.9247 -13.6383 -11.1927q-6.2679 -6.268 -11.1927 -13.6383q-4.9247 -7.3704 -8.3169 -15.5598q-3.3922 -8.1895 -5.1215 -16.8834q-1.7292 -8.6939 -1.7292 -17.5581l0 -270zm360 0l180 0l0 270q0 8.8642 -1.7295 17.5581q-1.7292 8.6939 -5.1216 16.8834q-3.3921 8.1895 -8.3169 15.5598q-4.9246 7.3703 -11.1925 13.6383q-6.2679 6.2679 -13.6383 11.1926q-7.3704 4.9247 -15.5598 8.3169q-8.1895 3.3922 -16.8833 5.1215q-8.6939 1.7293 -17.5581 1.7293q-8.8643 0 -17.5582 -1.7293q-8.694 -1.7293 -16.8834 -5.1216q-8.1895 -3.3922 -15.5598 -8.3169q-7.3702 -4.9247 -13.6382 -11.1927q-6.268 -6.268 -11.1927 -13.6383q-4.9247 -7.3704 -8.317 -15.5598q-3.3922 -8.1895 -5.1215 -16.8834q-1.7293 -8.6939 -1.7292 -17.5581l0 -270z"></path></g><line x1="130" y1="923.5" x2="130" y2="532" fill="none" stroke="#fff" stroke-width="55" stroke-linecap="round" transform="translate(-230 -330)"></line><ellipse fill="none" stroke="#fff" stroke-width="55" stroke-linecap="round" rx="130.5" ry="130.5" transform="translate(30.5 332.5)"></ellipse><ellipse fill="none" stroke="#fff" stroke-width="55" stroke-linecap="round" rx="131" ry="131" transform="translate(400 332)"></ellipse><path fill="none" stroke="#fff" stroke-width="55" stroke-linecap="round" d="m1131 565.8c-21.75 -13.05 -65.25 -34.8 -130.5 -34.8q-130.5 0 -130.5 65.25q0 65.25 130.5 65.25q130.5 0 130.5 65.25q0 65.25 -130.5 65.25c-65.25 0 -108.75 -21.75 -130.5 -34.8" transform="translate(-230 -330)"></path></g><g transform="matrix(0.2357 0 0 0.2357 615.2597 236.4063)"><path fill="#000" d="m471.5 167c21.78 0 39.5 -17.72 39.5 -39.5l0 -64c0 -21.78 -17.72 -39.5 -39.5 -39.5l-432 0c-21.78 0 -39.5 17.72 -39.5 39.5l0 64c0 21.78 17.72 39.5 39.5 39.5l208.5 0l0 17l-208.5 0c-21.78 0 -39.5 17.72 -39.5 39.5l0 64c0 21.78 17.72 39.5 39.5 39.5l208.5 0l0 17l-208.5 0c-21.78 0 -39.5 17.72 -39.5 39.5l0 64c0 21.78 17.72 39.5 39.5 39.5l432 0c21.78 0 39.5 -17.72 39.5 -39.5l0 -64c0 -21.78 -17.72 -39.5 -39.5 -39.5l-208.5 0l0 -17l208.5 0c21.78 0 39.5 -17.72 39.5 -39.5l0 -64c0 -21.78 -17.72 -39.5 -39.5 -39.5l-208.5 0l0 -17l208.5 0zm24.5 216.5l0 64c0 13.51 -10.991 24.5 -24.5 24.5l-432 0c-13.509 0 -24.5 -10.99 -24.5 -24.5l0 -64c0 -13.51 10.991 -24.5 24.5 -24.5l432 0c13.509 0 24.5 10.99 24.5 24.5zm0 -160l0 64c0 13.51 -10.991 24.5 -24.5 24.5l-432 0c-13.509 0 -24.5 -10.99 -24.5 -24.5l0 -64c0 -13.51 10.991 -24.5 24.5 -24.5l432 0c13.509 0 24.5 10.99 24.5 24.5zm-481 -96l0 -64c0 -13.51 10.991 -24.5 24.5 -24.5l432 0c13.509 0 24.5 10.99 24.5 24.5l0 64c0 13.51 -10.991 24.5 -24.5 24.5l-432 0c-13.509 0 -24.5 -10.99 -24.5 -24.5z"></path><path fill="#000" d="m71.5 64c-17.369 0 -31.5 14.131 -31.5 31.5c0 17.369 14.131 31.5 31.5 31.5c17.369 0 31.5 -14.131 31.5 -31.5c0 -17.369 -14.131 -31.5 -31.5 -31.5zm0 48c-9.098 0 -16.5 -7.402 -16.5 -16.5c0 -9.098 7.402 -16.5 16.5 -16.5c9.098 0 16.5 7.402 16.5 16.5c0 9.098 -7.402 16.5 -16.5 16.5z"></path><path fill="#000" d="m143.5 72c-12.958 0 -23.5 10.542 -23.5 23.5c0 12.958 10.542 23.5 23.5 23.5c12.958 0 23.5 -10.542 23.5 -23.5c0 -12.958 -10.542 -23.5 -23.5 -23.5zm0 32c-4.687 0 -8.5 -3.813 -8.5 -8.5c0 -4.687 3.813 -8.5 8.5 -8.5c4.687 0 8.5 3.813 8.5 8.5c0 4.687 -3.813 8.5 -8.5 8.5z"></path><path fill="#000" d="m71.5 224c-17.369 0 -31.5 14.131 -31.5 31.5c0 17.369 14.131 31.5 31.5 31.5c17.369 0 31.5 -14.131 31.5 -31.5c0 -17.369 -14.131 -31.5 -31.5 -31.5zm0 48c-9.098 0 -16.5 -7.402 -16.5 -16.5c0 -9.098 7.402 -16.5 16.5 -16.5c9.098 0 16.5 7.402 16.5 16.5c0 9.098 -7.402 16.5 -16.5 16.5z"></path><path fill="#000" d="m143.5 232c-12.958 0 -23.5 10.542 -23.5 23.5c0 12.958 10.542 23.5 23.5 23.5c12.958 0 23.5 -10.542 23.5 -23.5c0 -12.958 -10.542 -23.5 -23.5 -23.5zm0 32c-4.687 0 -8.5 -3.813 -8.5 -8.5c0 -4.687 3.813 -8.5 8.5 -8.5c4.687 0 8.5 3.813 8.5 8.5c0 4.687 -3.813 8.5 -8.5 8.5z"></path><path fill="#000" d="m455.5 264l-264 0c-4.142 0 -7.5 3.357 -7.5 7.5c0 4.143 3.358 7.5 7.5 7.5l264 0c4.142 0 7.5 -3.357 7.5 -7.5c0 -4.143 -3.358 -7.5 -7.5 -7.5z"></path><path fill="#000" d="m184 239.5c0 4.143 3.358 7.5 7.5 7.5l264 0c4.142 0 7.5 -3.357 7.5 -7.5c0 -4.143 -3.358 -7.5 -7.5 -7.5l-264 0c-4.142 0 -7.5 3.357 -7.5 7.5z"></path><path fill="#000" d="m463 111.5c0 -4.143 -3.358 -7.5 -7.5 -7.5l-264 0c-4.142 0 -7.5 3.357 -7.5 7.5c0 4.143 3.358 7.5 7.5 7.5l264 0c4.142 0 7.5 -3.357 7.5 -7.5z"></path><path fill="#000" d="m191.5 87l264 0c4.142 0 7.5 -3.357 7.5 -7.5c0 -4.143 -3.358 -7.5 -7.5 -7.5l-264 0c-4.142 0 -7.5 3.357 -7.5 7.5c0 4.143 3.358 7.5 7.5 7.5z"></path><path fill="#000" d="m71.5 384c-17.369 0 -31.5 14.131 -31.5 31.5c0 17.369 14.131 31.5 31.5 31.5c17.369 0 31.5 -14.131 31.5 -31.5c0 -17.369 -14.131 -31.5 -31.5 -31.5zm0 48c-9.098 0 -16.5 -7.402 -16.5 -16.5c0 -9.098 7.402 -16.5 16.5 -16.5c9.098 0 16.5 7.402 16.5 16.5c0 9.098 -7.402 16.5 -16.5 16.5z"></path><path fill="#000" d="m143.5 392c-12.958 0 -23.5 10.542 -23.5 23.5c0 12.958 10.542 23.5 23.5 23.5c12.958 0 23.5 -10.542 23.5 -23.5c0 -12.958 -10.542 -23.5 -23.5 -23.5zm0 32c-4.687 0 -8.5 -3.813 -8.5 -8.5c0 -4.687 3.813 -8.5 8.5 -8.5c4.687 0 8.5 3.813 8.5 8.5c0 4.687 -3.813 8.5 -8.5 8.5z"></path><path fill="#000" d="m455.5 424l-264 0c-4.142 0 -7.5 3.357 -7.5 7.5c0 4.143 3.358 7.5 7.5 7.5l264 0c4.142 0 7.5 -3.357 7.5 -7.5c0 -4.143 -3.358 -7.5 -7.5 -7.5z"></path><path fill="#000" d="m184 399.5c0 4.143 3.358 7.5 7.5 7.5l264 0c4.142 0 7.5 -3.357 7.5 -7.5c0 -4.143 -3.358 -7.5 -7.5 -7.5l-264 0c-4.142 0 -7.5 3.357 -7.5 7.5z"></path></g><g transform="matrix(0.2593 0 0 0.2593 591.4702 145.8827)"><path fill="#9b5c8f" stroke="#fff" stroke-width="30" paint-order="stroke" d="m23.759 0l208.378 0c13.188 0 23.863 10.675 23.863 23.863l0 79.541c0 13.188 -10.675 23.863 -23.863 23.863l-74.727 0l10.257 25.118l-45.109 -25.118l-98.695 0c-13.187 0 -23.862 -10.675 -23.862 -23.863l0 -79.541c-0.105 -13.083 10.569 -23.863 23.758 -23.863z" transform="translate(196.0512 523.1419)"></path><path fill="#fff" d="m14.578 21.75c1.457 -1.978 3.642 -3.018 6.556 -3.226c5.308 -0.417 8.326 2.08 9.054 7.492c3.226 21.75 6.764 40.17 10.51 55.259l22.79 -43.395c2.082 -3.955 4.684 -6.036 7.806 -6.244c4.579 -0.312 7.388 2.601 8.533 8.741c2.602 13.84 5.932 25.6 9.886 35.59c2.706 -26.432 7.285 -45.476 13.737 -57.235c1.56 -2.914 3.85 -4.371 6.868 -4.58c2.394 -0.207 4.579 0.521 6.556 2.082c1.977 1.561 3.018 3.538 3.226 5.932c0.104 1.873 -0.208 3.434 -1.04 4.995c-4.059 7.493 -7.39 20.085 -10.095 37.567c-2.601 16.963 -3.538 30.18 -2.914 39.65c0.209 2.6 -0.208 4.89 -1.248 6.868c-1.25 2.289 -3.122 3.538 -5.516 3.746c-2.706 0.208 -5.515 -1.04 -8.221 -3.85c-9.678 -9.887 -17.379 -24.664 -22.998 -44.332c-6.765 13.32 -11.76 23.31 -14.986 29.97c-6.14 11.76 -11.343 17.796 -15.714 18.108c-2.81 0.208 -5.203 -2.186 -7.284 -7.18c-5.307 -13.633 -11.031 -39.962 -17.17 -78.986c-0.417 -2.706 0.207 -5.1 1.664 -6.972l0 0zm223.636 16.338c-3.746 -6.556 -9.262 -10.51 -16.65 -12.072c-1.978 -0.416 -3.85 -0.624 -5.62 -0.624c-9.99 0 -18.107 5.203 -24.455 15.61c-5.412 8.845 -8.117 18.627 -8.117 29.346c0 8.013 1.665 14.881 4.995 20.605c3.746 6.556 9.262 10.51 16.65 12.071c1.977 0.417 3.85 0.625 5.62 0.625c10.094 0 18.211 -5.203 24.455 -15.61c5.411 -8.95 8.117 -18.732 8.117 -29.45c0.104 -8.117 -1.665 -14.882 -4.995 -20.501zm-13.112 28.826c-1.457 6.868 -4.059 11.967 -7.91 15.401c-3.017 2.706 -5.827 3.85 -8.428 3.33c-2.498 -0.52 -4.58 -2.705 -6.14 -6.764c-1.25 -3.226 -1.873 -6.452 -1.873 -9.47c0 -2.601 0.208 -5.203 0.728 -7.596c0.937 -4.267 2.706 -8.43 5.515 -12.384c3.435 -5.1 7.077 -7.18 10.823 -6.452c2.498 0.52 4.58 2.706 6.14 6.764c1.249 3.226 1.873 6.452 1.873 9.47c0 2.706 -0.208 5.307 -0.728 7.7l0 0.001zm-52.033 -28.826c-3.746 -6.556 -9.366 -10.51 -16.65 -12.072c-1.977 -0.416 -3.85 -0.624 -5.62 -0.624c-9.99 0 -18.107 5.203 -24.455 15.61c-5.411 8.845 -8.117 18.627 -8.117 29.346c0 8.013 1.665 14.881 4.995 20.605c3.746 6.556 9.262 10.51 16.65 12.071c1.978 0.417 3.85 0.625 5.62 0.625c10.094 0 18.211 -5.203 24.455 -15.61c5.412 -8.95 8.117 -18.732 8.117 -29.45c0 -8.117 -1.665 -14.882 -4.995 -20.501l0 0zm-13.216 28.826c-1.457 6.868 -4.059 11.967 -7.909 15.401c-3.018 2.706 -5.828 3.85 -8.43 3.33c-2.497 -0.52 -4.578 -2.705 -6.14 -6.764c-1.248 -3.226 -1.872 -6.452 -1.872 -9.47c0 -2.601 0.208 -5.203 0.728 -7.596c0.937 -4.267 2.706 -8.43 5.516 -12.384c3.434 -5.1 7.076 -7.18 10.822 -6.452c2.498 0.52 4.58 2.706 6.14 6.764c1.25 3.226 1.873 6.452 1.873 9.47c0.105 2.706 -0.208 5.307 -0.728 7.7l0 0.001z" transform="translate(196.0512 523.1419)"></path></g><path d="M36.9316 4.72656L31.1543 15.5078L31.1543 22L27.5449 22L27.5449 15.5078L21.5684 4.72656L25.8223 4.72656L29.4082 12.25L32.8418 4.72656L36.9316 4.72656ZM49.377 10.8438Q50.9941 12.8711 50.9941 15.6367Q50.9941 18.4492 49.377 20.4473Q47.7598 22.4453 44.4668 22.4453Q41.1738 22.4453 39.5566 20.4473Q37.9395 18.4492 37.9395 15.6367Q37.9395 12.8711 39.5566 10.8438Q41.1738 8.81641 44.4668 8.81641Q47.7598 8.81641 49.377 10.8438ZM44.4551 11.6406Q42.9902 11.6406 42.1992 12.6777Q41.4082 13.7148 41.4082 15.6367Q41.4082 17.5586 42.1992 18.6016Q42.9902 19.6445 44.4551 19.6445Q45.9199 19.6445 46.7051 18.6016Q47.4902 17.5586 47.4902 15.6367Q47.4902 13.7148 46.7051 12.6777Q45.9199 11.6406 44.4551 11.6406ZM61.5762 20.1953Q61.5293 20.2539 61.3418 20.5469Q61.1543 20.8398 60.8965 21.0625Q60.1113 21.7656 59.3789 22.0234Q58.6465 22.2812 57.6621 22.2812Q54.8262 22.2812 53.8418 20.2422Q53.291 19.1172 53.291 16.9258L53.291 9.22656L56.7129 9.22656L56.7129 16.9258Q56.7129 18.0156 56.9707 18.5664Q57.4277 19.5391 58.7637 19.5391Q60.4746 19.5391 61.1074 18.1562Q61.4355 17.4062 61.4355 16.1758L61.4355 9.22656L64.8223 9.22656L64.8223 22L61.5762 22L61.5762 20.1953ZM74.4668 12.3086Q72.4512 12.3086 71.7598 13.6211Q71.373 14.3594 71.373 15.8945L71.373 22L68.0098 22L68.0098 9.22656L71.1973 9.22656L71.1973 11.4531Q71.9707 10.1758 72.5449 9.70703Q73.4824 8.92188 74.9824 8.92188Q75.0762 8.92188 75.1406 8.92773Q75.2051 8.93359 75.4277 8.94531L75.4277 12.3672Q75.1113 12.332 74.8652 12.3203Q74.6191 12.3086 74.4668 12.3086ZM90.5918 19.5039Q91.8691 19.5039 92.666 19.2227Q94.1777 18.6836 94.1777 17.2188Q94.1777 16.3633 93.4277 15.8945Q92.6777 15.4375 91.0723 15.0859L89.2441 14.6758Q86.5488 14.0664 85.5176 13.3516Q83.7715 12.1562 83.7715 9.61328Q83.7715 7.29297 85.459 5.75781Q87.1465 4.22266 90.416 4.22266Q93.1465 4.22266 95.0742 5.66992Q97.002 7.11719 97.0957 9.87109L93.627 9.87109Q93.5332 8.3125 92.2676 7.65625Q91.4238 7.22266 90.1699 7.22266Q88.7754 7.22266 87.9434 7.78516Q87.1113 8.34766 87.1113 9.35547Q87.1113 10.2812 87.9316 10.7383Q88.459 11.043 90.1816 11.4531L93.1582 12.168Q95.1152 12.6367 96.1113 13.4219Q97.6582 14.6406 97.6582 16.9492Q97.6582 19.3164 95.8477 20.8809Q94.0371 22.4453 90.7324 22.4453Q87.3574 22.4453 85.4238 20.9043Q83.4902 19.3633 83.4902 16.668L86.9355 16.668Q87.0996 17.8516 87.5801 18.4375Q88.459 19.5039 90.5918 19.5039ZM105.908 19.6211L105.908 22.1172L104.326 22.1758Q101.959 22.2578 101.092 21.3555Q100.529 20.7812 100.529 19.5859L100.529 11.7227L98.748 11.7227L98.748 9.34375L100.529 9.34375L100.529 5.78125L103.834 5.78125L103.834 9.34375L105.908 9.34375L105.908 11.7227L103.834 11.7227L103.834 18.4727Q103.834 19.2578 104.033 19.4512Q104.232 19.6445 105.252 19.6445Q105.404 19.6445 105.574 19.6387Q105.744 19.6328 105.908 19.6211ZM118.705 10.8438Q120.322 12.8711 120.322 15.6367Q120.322 18.4492 118.705 20.4473Q117.088 22.4453 113.795 22.4453Q110.502 22.4453 108.885 20.4473Q107.268 18.4492 107.268 15.6367Q107.268 12.8711 108.885 10.8438Q110.502 8.81641 113.795 8.81641Q117.088 8.81641 118.705 10.8438ZM113.783 11.6406Q112.318 11.6406 111.527 12.6777Q110.736 13.7148 110.736 15.6367Q110.736 17.5586 111.527 18.6016Q112.318 19.6445 113.783 19.6445Q115.248 19.6445 116.033 18.6016Q116.818 17.5586 116.818 15.6367Q116.818 13.7148 116.033 12.6777Q115.248 11.6406 113.783 11.6406ZM129.135 12.3086Q127.119 12.3086 126.428 13.6211Q126.041 14.3594 126.041 15.8945L126.041 22L122.678 22L122.678 9.22656L125.865 9.22656L125.865 11.4531Q126.639 10.1758 127.213 9.70703Q128.15 8.92188 129.65 8.92188Q129.744 8.92188 129.809 8.92773Q129.873 8.93359 130.096 8.94531L130.096 12.3672Q129.779 12.332 129.533 12.3203Q129.287 12.3086 129.135 12.3086ZM142.986 18.25Q142.857 19.3867 141.803 20.5586Q140.162 22.4219 137.209 22.4219Q134.771 22.4219 132.908 20.8516Q131.045 19.2812 131.045 15.7422Q131.045 12.4258 132.727 10.6562Q134.408 8.88672 137.092 8.88672Q138.686 8.88672 139.963 9.48438Q141.24 10.082 142.072 11.3711Q142.822 12.5078 143.045 14.0078Q143.174 14.8867 143.15 16.5391L134.408 16.5391Q134.479 18.4609 135.615 19.2344Q136.307 19.7148 137.279 19.7148Q138.311 19.7148 138.955 19.1289Q139.307 18.8125 139.576 18.25L142.986 18.25ZM139.682 14.3359Q139.6 13.0117 138.879 12.3262Q138.158 11.6406 137.092 11.6406Q135.932 11.6406 135.293 12.3672Q134.654 13.0938 134.49 14.3359L139.682 14.3359Z" fill="#000" paint-order="stroke" transform="translate(33.5099 372.8324)"></path><path d="M26.2422 22L18.8008 22L18.8008 4.72656L26.2422 4.72656Q27.8477 4.75 28.9141 5.10156Q30.7305 5.69922 31.8555 7.29297Q32.7578 8.58203 33.0859 10.082Q33.4141 11.582 33.4141 12.9414Q33.4141 16.3867 32.0312 18.7773Q30.1562 22 26.2422 22ZM28.9258 9.13281Q28.0938 7.72656 25.6328 7.72656L22.3047 7.72656L22.3047 19L25.6328 19Q28.1875 19 29.1953 16.4805Q29.7461 15.0977 29.7461 13.1875Q29.7461 10.5508 28.9258 9.13281ZM36.3438 10.6094Q37.668 8.92188 40.8906 8.92188Q42.9883 8.92188 44.6172 9.75391Q46.2461 10.5859 46.2461 12.8945L46.2461 18.7539Q46.2461 19.3633 46.2695 20.2305Q46.3047 20.8867 46.4688 21.1211Q46.6328 21.3555 46.9609 21.5078L46.9609 22L43.3281 22Q43.1758 21.6133 43.1172 21.2734Q43.0586 20.9336 43.0234 20.5Q42.332 21.25 41.4297 21.7773Q40.3516 22.3984 38.9922 22.3984Q37.2578 22.3984 36.127 21.4082Q34.9961 20.418 34.9961 18.6016Q34.9961 16.2461 36.8125 15.1914Q37.8086 14.6172 39.7422 14.3711L40.8789 14.2305Q41.8047 14.1133 42.2031 13.9375Q42.918 13.6328 42.918 12.9883Q42.918 12.2031 42.373 11.9043Q41.8281 11.6055 40.7734 11.6055Q39.5898 11.6055 39.0977 12.1914Q38.7461 12.625 38.6289 13.3633L35.4062 13.3633Q35.5117 11.6875 36.3438 10.6094ZM38.8281 19.5859Q39.2969 19.9727 39.9766 19.9727Q41.0547 19.9727 41.9629 19.3398Q42.8711 18.707 42.9062 17.0312L42.9062 15.7891Q42.5898 15.9883 42.2676 16.1113Q41.9453 16.2344 41.3828 16.3398L40.6328 16.4805Q39.5781 16.668 39.1211 16.9375Q38.3477 17.3945 38.3477 18.3555Q38.3477 19.2109 38.8281 19.5859ZM55.0586 19.6211L55.0586 22.1172L53.4766 22.1758Q51.1094 22.2578 50.2422 21.3555Q49.6797 20.7812 49.6797 19.5859L49.6797 11.7227L47.8984 11.7227L47.8984 9.34375L49.6797 9.34375L49.6797 5.78125L52.9844 5.78125L52.9844 9.34375L55.0586 9.34375L55.0586 11.7227L52.9844 11.7227L52.9844 18.4727Q52.9844 19.2578 53.1836 19.4512Q53.3828 19.6445 54.4023 19.6445Q54.5547 19.6445 54.7246 19.6387Q54.8945 19.6328 55.0586 19.6211ZM57.6836 10.6094Q59.0078 8.92188 62.2305 8.92188Q64.3281 8.92188 65.957 9.75391Q67.5859 10.5859 67.5859 12.8945L67.5859 18.7539Q67.5859 19.3633 67.6094 20.2305Q67.6445 20.8867 67.8086 21.1211Q67.9727 21.3555 68.3008 21.5078L68.3008 22L64.668 22Q64.5156 21.6133 64.457 21.2734Q64.3984 20.9336 64.3633 20.5Q63.6719 21.25 62.7695 21.7773Q61.6914 22.3984 60.332 22.3984Q58.5977 22.3984 57.4668 21.4082Q56.3359 20.418 56.3359 18.6016Q56.3359 16.2461 58.1523 15.1914Q59.1484 14.6172 61.082 14.3711L62.2188 14.2305Q63.1445 14.1133 63.543 13.9375Q64.2578 13.6328 64.2578 12.9883Q64.2578 12.2031 63.7129 11.9043Q63.168 11.6055 62.1133 11.6055Q60.9297 11.6055 60.4375 12.1914Q60.0859 12.625 59.9688 13.3633L56.7461 13.3633Q56.8516 11.6875 57.6836 10.6094ZM60.168 19.5859Q60.6367 19.9727 61.3164 19.9727Q62.3945 19.9727 63.3027 19.3398Q64.2109 18.707 64.2461 17.0312L64.2461 15.7891Q63.9297 15.9883 63.6074 16.1113Q63.2852 16.2344 62.7227 16.3398L61.9727 16.4805Q60.918 16.668 60.4609 16.9375Q59.6875 17.3945 59.6875 18.3555Q59.6875 19.2109 60.168 19.5859ZM81.6016 13.8086L78.1797 13.8086Q78.0859 13.0938 77.6992 12.5195Q77.1367 11.7461 75.9531 11.7461Q74.2656 11.7461 73.6445 13.4219Q73.3164 14.3125 73.3164 15.7891Q73.3164 17.1953 73.6445 18.0508Q74.2422 19.6445 75.8945 19.6445Q77.0664 19.6445 77.5586 19.0117Q78.0508 18.3789 78.1562 17.3711L81.5664 17.3711Q81.4492 18.8945 80.4648 20.2539Q78.8945 22.4453 75.8125 22.4453Q72.7305 22.4453 71.2773 20.6172Q69.8242 18.7891 69.8242 15.8711Q69.8242 12.5781 71.4297 10.75Q73.0352 8.92188 75.8594 8.92188Q78.2617 8.92188 79.791 10Q81.3203 11.0781 81.6016 13.8086ZM94.832 18.25Q94.7031 19.3867 93.6484 20.5586Q92.0078 22.4219 89.0547 22.4219Q86.6172 22.4219 84.7539 20.8516Q82.8906 19.2812 82.8906 15.7422Q82.8906 12.4258 84.5723 10.6562Q86.2539 8.88672 88.9375 8.88672Q90.5312 8.88672 91.8086 9.48438Q93.0859 10.082 93.918 11.3711Q94.668 12.5078 94.8906 14.0078Q95.0195 14.8867 94.9961 16.5391L86.2539 16.5391Q86.3242 18.4609 87.4609 19.2344Q88.1523 19.7148 89.125 19.7148Q90.1562 19.7148 90.8008 19.1289Q91.1523 18.8125 91.4219 18.25L94.832 18.25ZM91.5273 14.3359Q91.4453 13.0117 90.7246 12.3262Q90.0039 11.6406 88.9375 11.6406Q87.7773 11.6406 87.1387 12.3672Q86.5 13.0938 86.3359 14.3359L91.5273 14.3359ZM103.258 11.6992Q101.559 11.6992 100.926 13.1406Q100.598 13.9023 100.598 15.0859L100.598 22L97.2695 22L97.2695 9.25L100.492 9.25L100.492 11.1133Q101.137 10.1289 101.711 9.69531Q102.742 8.92188 104.324 8.92188Q106.305 8.92188 107.564 9.95898Q108.824 10.9961 108.824 13.3984L108.824 22L105.402 22L105.402 14.2305Q105.402 13.2227 105.133 12.6836Q104.641 11.6992 103.258 11.6992ZM117.754 19.6211L117.754 22.1172L116.172 22.1758Q113.805 22.2578 112.938 21.3555Q112.375 20.7812 112.375 19.5859L112.375 11.7227L110.594 11.7227L110.594 9.34375L112.375 9.34375L112.375 5.78125L115.68 5.78125L115.68 9.34375L117.754 9.34375L117.754 11.7227L115.68 11.7227L115.68 18.4727Q115.68 19.2578 115.879 19.4512Q116.078 19.6445 117.098 19.6445Q117.25 19.6445 117.42 19.6387Q117.59 19.6328 117.754 19.6211ZM130.832 18.25Q130.703 19.3867 129.648 20.5586Q128.008 22.4219 125.055 22.4219Q122.617 22.4219 120.754 20.8516Q118.891 19.2812 118.891 15.7422Q118.891 12.4258 120.572 10.6562Q122.254 8.88672 124.938 8.88672Q126.531 8.88672 127.809 9.48438Q129.086 10.082 129.918 11.3711Q130.668 12.5078 130.891 14.0078Q131.02 14.8867 130.996 16.5391L122.254 16.5391Q122.324 18.4609 123.461 19.2344Q124.152 19.7148 125.125 19.7148Q126.156 19.7148 126.801 19.1289Q127.152 18.8125 127.422 18.25L130.832 18.25ZM127.527 14.3359Q127.445 13.0117 126.725 12.3262Q126.004 11.6406 124.938 11.6406Q123.777 11.6406 123.139 12.3672Q122.5 13.0938 122.336 14.3359L127.527 14.3359ZM139.668 12.3086Q137.652 12.3086 136.961 13.6211Q136.574 14.3594 136.574 15.8945L136.574 22L133.211 22L133.211 9.22656L136.398 9.22656L136.398 11.4531Q137.172 10.1758 137.746 9.70703Q138.684 8.92188 140.184 8.92188Q140.277 8.92188 140.342 8.92773Q140.406 8.93359 140.629 8.94531L140.629 12.3672Q140.312 12.332 140.066 12.3203Q139.82 12.3086 139.668 12.3086Z" fill="#000" paint-order="stroke" transform="translate(597.9122 372.8324)"></path><path fill="#000" d="m152.93 630.0815c0 17.1 -13.87 30.97 -30.97 30.97c-17.11 0 -30.98 -13.87 -30.98 -30.97l0 -520.5115l-37.45 40.31c-11.63 12.5 -31.19 13.2 -43.68 1.57c-12.49 -11.62 -13.19 -31.18 -1.57 -43.68l91.05 -97.98l2.06 -1.94c12.69 -11.35 32.2 -10.26 43.55 2.43l91.05 101.47c11.35 12.69 10.26 32.2 -2.43 43.55c-12.68 11.36 -32.19 10.27 -43.55 -2.42l-37.08 -41.33l0 518.5315l0 0z" transform="matrix(0 -0.1221 0.1221 0 517.1676 312.4531)" opacity="0"><animateTransform attributeName="transform" type="translate" from="0 0" to="0 0" calcMode="discrete" dur="6222.6667ms" repeatCount="indefinite"></animateTransform><animateMotion keyTimes="0;0.2893;0.4643;0.7857;0.7857;0.9571;1" calcMode="linear" dur="6222.6667ms" repeatCount="indefinite" attributeName="transform" keyPoints="0;0;0.3333;0.3333;0.6667;1;1" path="m557.5401 297.5609l-317.819 0l317.819 0l-317.819 0" additive="sum"></animateMotion><animateTransform attributeName="transform" type="rotate" from="-90" to="-90" calcMode="discrete" dur="6222.6667ms" repeatCount="indefinite" additive="sum"></animateTransform><animateTransform attributeName="transform" type="scale" from="0.1221 0.1221" to="0.1221 0.1221" calcMode="discrete" dur="6222.6667ms" repeatCount="indefinite" additive="sum"></animateTransform><animateTransform attributeName="transform" type="translate" from="-121.921 -330.5266" to="-121.921 -330.5266" calcMode="discrete" dur="6222.6667ms" repeatCount="indefinite" additive="sum"></animateTransform><animate keyTimes="0;0.2893;0.2893;0.4643;0.4643;0.7857;0.7857;0.9571;0.9571;1" calcMode="linear" dur="6222.6667ms" repeatCount="indefinite" attributeName="opacity" values="0;0;1;1;0;0;1;1;0;0"></animate></path><path fill="#000" d="m152.93 630.0815c0 17.1 -13.87 30.97 -30.97 30.97c-17.11 0 -30.98 -13.87 -30.98 -30.97l0 -520.5115l-37.45 40.31c-11.63 12.5 -31.19 13.2 -43.68 1.57c-12.49 -11.62 -13.19 -31.18 -1.57 -43.68l91.05 -97.98l2.06 -1.94c12.69 -11.35 32.2 -10.26 43.55 2.43l91.05 101.47c11.35 12.69 10.26 32.2 -2.43 43.55c-12.68 11.36 -32.19 10.27 -43.55 -2.42l-37.08 -41.33l0 518.5315l0 0z" transform="matrix(0 0.1221 -0.1221 0 280.0935 282.6641)" opacity="0"><animateTransform attributeName="transform" type="translate" from="0 0" to="0 0" calcMode="discrete" dur="6222.6667ms" repeatCount="indefinite"></animateTransform><animateMotion keyTimes="0;0.0429;0.2143;0.5357;0.5357;0.7071;1" calcMode="linear" dur="6222.6667ms" repeatCount="indefinite" attributeName="transform" keyPoints="0;0;0.3333;0.3333;0.6667;1;1" path="m239.7211 297.5562l317.819 0l-317.819 0l317.819 0" additive="sum"></animateMotion><animateTransform attributeName="transform" type="rotate" from="90" to="90" calcMode="discrete" dur="6222.6667ms" repeatCount="indefinite" additive="sum"></animateTransform><animateTransform attributeName="transform" type="scale" from="0.1221 0.1221" to="0.1221 0.1221" calcMode="discrete" dur="6222.6667ms" repeatCount="indefinite" additive="sum"></animateTransform><animateTransform attributeName="transform" type="translate" from="-121.921 -330.5266" to="-121.921 -330.5266" calcMode="discrete" dur="6222.6667ms" repeatCount="indefinite" additive="sum"></animateTransform><animate keyTimes="0;0.0429;0.0429;0.2143;0.2143;0.5357;0.5357;0.7071;0.7071;1" calcMode="linear" dur="6222.6667ms" repeatCount="indefinite" attributeName="opacity" values="0;0;1;1;0;0;1;1;0;0"></animate></path><path d="M40.252 21.5781Q38.8223 22.457 36.7363 22.457Q33.3027 22.457 31.1113 20.0781Q28.8262 17.6875 28.8262 13.5391Q28.8262 9.34375 31.1348 6.8125Q33.4434 4.28125 37.2402 4.28125Q40.5332 4.28125 42.5312 5.95117Q44.5293 7.62109 44.8223 10.1172L41.2715 10.1172Q40.8613 8.34766 39.2676 7.64453Q38.377 7.25781 37.2871 7.25781Q35.2012 7.25781 33.8594 8.83398Q32.5176 10.4102 32.5176 13.5742Q32.5176 16.7617 33.9707 18.0859Q35.4238 19.4102 37.2754 19.4102Q39.0918 19.4102 40.252 18.3613Q41.4121 17.3125 41.6816 15.6133L37.6855 15.6133L37.6855 12.7305L44.8809 12.7305L44.8809 22L42.4902 22L42.127 19.8438Q41.084 21.0742 40.252 21.5781ZM60.3496 14.4531L51.959 14.4531L51.959 18.8945L61.5215 18.8945L61.5215 22L48.4316 22L48.4316 4.72656L61.0996 4.72656L61.0996 7.78516L51.959 7.78516L51.959 11.4531L60.3496 11.4531L60.3496 14.4531ZM76.8848 4.72656L76.8848 7.78516L71.7168 7.78516L71.7168 22L68.084 22L68.084 7.78516L62.8926 7.78516L62.8926 4.72656L76.8848 4.72656ZM82.5215 22L89.2129 4.19922L91.9902 4.19922L85.2754 22L82.5215 22ZM102.76 10.5977Q104.307 12.25 104.307 15.4492Q104.307 18.8242 102.789 20.5938Q101.271 22.3633 98.8809 22.3633Q97.3574 22.3633 96.3496 21.6016Q95.7988 21.1797 95.2715 20.3711L95.2715 27.0273L91.9668 27.0273L91.9668 9.22656L95.166 9.22656L95.166 11.1133Q95.7051 10.2812 96.3145 9.80078Q97.4277 8.94531 98.9629 8.94531Q101.201 8.94531 102.76 10.5977ZM100.861 15.6133Q100.861 14.1367 100.188 13Q99.5137 11.8633 98.002 11.8633Q96.1855 11.8633 95.5059 13.5859Q95.1543 14.5 95.1543 15.9062Q95.1543 18.1328 96.3379 19.0352Q97.041 19.5625 98.002 19.5625Q99.3965 19.5625 100.129 18.4844Q100.861 17.4062 100.861 15.6133ZM113.143 12.3086Q111.127 12.3086 110.436 13.6211Q110.049 14.3594 110.049 15.8945L110.049 22L106.686 22L106.686 9.22656L109.873 9.22656L109.873 11.4531Q110.646 10.1758 111.221 9.70703Q112.158 8.92188 113.658 8.92188Q113.752 8.92188 113.816 8.92773Q113.881 8.93359 114.104 8.94531L114.104 12.3672Q113.787 12.332 113.541 12.3203Q113.295 12.3086 113.143 12.3086ZM126.713 10.8438Q128.33 12.8711 128.33 15.6367Q128.33 18.4492 126.713 20.4473Q125.096 22.4453 121.803 22.4453Q118.51 22.4453 116.893 20.4473Q115.275 18.4492 115.275 15.6367Q115.275 12.8711 116.893 10.8438Q118.51 8.81641 121.803 8.81641Q125.096 8.81641 126.713 10.8438ZM121.791 11.6406Q120.326 11.6406 119.535 12.6777Q118.744 13.7148 118.744 15.6367Q118.744 17.5586 119.535 18.6016Q120.326 19.6445 121.791 19.6445Q123.256 19.6445 124.041 18.6016Q124.826 17.5586 124.826 15.6367Q124.826 13.7148 124.041 12.6777Q123.256 11.6406 121.791 11.6406ZM142.346 4.75L142.346 22L139.1 22L139.1 20.2305Q138.385 21.3672 137.471 21.8828Q136.557 22.3984 135.197 22.3984Q132.959 22.3984 131.43 20.5879Q129.9 18.7773 129.9 15.9414Q129.9 12.6719 131.406 10.7969Q132.912 8.92188 135.432 8.92188Q136.592 8.92188 137.494 9.43164Q138.396 9.94141 138.959 10.8438L138.959 4.75L142.346 4.75ZM133.346 15.6953Q133.346 17.4648 134.049 18.5195Q134.74 19.5859 136.158 19.5859Q137.576 19.5859 138.314 18.5312Q139.053 17.4766 139.053 15.8008Q139.053 13.457 137.869 12.4492Q137.143 11.8398 136.182 11.8398Q134.717 11.8398 134.031 12.9473Q133.346 14.0547 133.346 15.6953ZM153.572 20.1953Q153.525 20.2539 153.338 20.5469Q153.15 20.8398 152.893 21.0625Q152.107 21.7656 151.375 22.0234Q150.643 22.2812 149.658 22.2812Q146.822 22.2812 145.838 20.2422Q145.287 19.1172 145.287 16.9258L145.287 9.22656L148.709 9.22656L148.709 16.9258Q148.709 18.0156 148.967 18.5664Q149.424 19.5391 150.76 19.5391Q152.471 19.5391 153.104 18.1562Q153.432 17.4062 153.432 16.1758L153.432 9.22656L156.818 9.22656L156.818 22L153.572 22L153.572 20.1953ZM171.092 13.8086L167.67 13.8086Q167.576 13.0938 167.189 12.5195Q166.627 11.7461 165.443 11.7461Q163.756 11.7461 163.135 13.4219Q162.807 14.3125 162.807 15.7891Q162.807 17.1953 163.135 18.0508Q163.732 19.6445 165.385 19.6445Q166.557 19.6445 167.049 19.0117Q167.541 18.3789 167.646 17.3711L171.057 17.3711Q170.939 18.8945 169.955 20.2539Q168.385 22.4453 165.303 22.4453Q162.221 22.4453 160.768 20.6172Q159.314 18.7891 159.314 15.8711Q159.314 12.5781 160.92 10.75Q162.525 8.92188 165.35 8.92188Q167.752 8.92188 169.281 10Q170.811 11.0781 171.092 13.8086ZM179.236 19.6211L179.236 22.1172L177.654 22.1758Q175.287 22.2578 174.42 21.3555Q173.857 20.7812 173.857 19.5859L173.857 11.7227L172.076 11.7227L172.076 9.34375L173.857 9.34375L173.857 5.78125L177.162 5.78125L177.162 9.34375L179.236 9.34375L179.236 11.7227L177.162 11.7227L177.162 18.4727Q177.162 19.2578 177.361 19.4512Q177.561 19.6445 178.58 19.6445Q178.732 19.6445 178.902 19.6387Q179.072 19.6328 179.236 19.6211ZM190.182 9.8125Q191.682 10.7734 191.904 13.1172L188.564 13.1172Q188.494 12.4727 188.201 12.0977Q187.65 11.418 186.326 11.418Q185.236 11.418 184.773 11.7578Q184.311 12.0977 184.311 12.5547Q184.311 13.1289 184.803 13.3867Q185.295 13.6562 188.283 14.3125Q190.275 14.7812 191.271 15.7305Q192.256 16.6914 192.256 18.1328Q192.256 20.0312 190.844 21.2324Q189.432 22.4336 186.479 22.4336Q183.467 22.4336 182.031 21.1621Q180.596 19.8906 180.596 17.9219L183.982 17.9219Q184.088 18.8125 184.439 19.1875Q185.061 19.8555 186.736 19.8555Q187.721 19.8555 188.301 19.5625Q188.881 19.2695 188.881 18.6836Q188.881 18.1211 188.412 17.8281Q187.943 17.5352 184.932 16.8203Q182.764 16.2812 181.873 15.4727Q180.982 14.6758 180.982 13.1758Q180.982 11.4062 182.371 10.1348Q183.76 8.86328 186.279 8.86328Q188.67 8.86328 190.182 9.8125Z" fill="#009411" paint-order="stroke" transform="translate(288.5313 246.8603)" opacity="0"><animate keyTimes="0;0.0429;0.0429;0.2143;0.2143;1" calcMode="linear" dur="6222.6667ms" repeatCount="indefinite" attributeName="opacity" values="0;0;1;1;0;0"></animate></path><path d="M42.9766 15.7891L39.3086 15.7891L39.3086 22L35.7227 22L35.7227 4.72656L43.2461 4.72656Q45.8477 4.72656 47.3945 6.0625Q48.9414 7.39844 48.9414 10.1992Q48.9414 13.2578 47.3945 14.5234Q45.8477 15.7891 42.9766 15.7891ZM44.6641 12.1914Q45.3672 11.5703 45.3672 10.2227Q45.3672 8.875 44.6582 8.30078Q43.9492 7.72656 42.6719 7.72656L39.3086 7.72656L39.3086 12.8125L42.6719 12.8125Q43.9492 12.8125 44.6641 12.1914ZM59.2891 22.4805Q55.5859 22.4805 53.6289 20.4648Q51.0039 17.9922 51.0039 13.3398Q51.0039 8.59375 53.6289 6.21484Q55.5859 4.19922 59.2891 4.19922Q62.9922 4.19922 64.9492 6.21484Q67.5625 8.59375 67.5625 13.3398Q67.5625 17.9922 64.9492 20.4648Q62.9922 22.4805 59.2891 22.4805ZM62.6992 17.8398Q63.9531 16.2578 63.9531 13.3398Q63.9531 10.4336 62.6934 8.8457Q61.4336 7.25781 59.2891 7.25781Q57.1445 7.25781 55.8672 8.83984Q54.5898 10.4219 54.5898 13.3398Q54.5898 16.2578 55.8672 17.8398Q57.1445 19.4219 59.2891 19.4219Q61.4336 19.4219 62.6992 17.8398ZM76.5859 19.5039Q77.8633 19.5039 78.6602 19.2227Q80.1719 18.6836 80.1719 17.2188Q80.1719 16.3633 79.4219 15.8945Q78.6719 15.4375 77.0664 15.0859L75.2383 14.6758Q72.543 14.0664 71.5117 13.3516Q69.7656 12.1562 69.7656 9.61328Q69.7656 7.29297 71.4531 5.75781Q73.1406 4.22266 76.4102 4.22266Q79.1406 4.22266 81.0684 5.66992Q82.9961 7.11719 83.0898 9.87109L79.6211 9.87109Q79.5273 8.3125 78.2617 7.65625Q77.418 7.22266 76.1641 7.22266Q74.7695 7.22266 73.9375 7.78516Q73.1055 8.34766 73.1055 9.35547Q73.1055 10.2812 73.9258 10.7383Q74.4531 11.043 76.1758 11.4531L79.1523 12.168Q81.1094 12.6367 82.1055 13.4219Q83.6523 14.6406 83.6523 16.9492Q83.6523 19.3164 81.8418 20.8809Q80.0312 22.4453 76.7266 22.4453Q73.3516 22.4453 71.418 20.9043Q69.4844 19.3633 69.4844 16.668L72.9297 16.668Q73.0938 17.8516 73.5742 18.4375Q74.4531 19.5039 76.5859 19.5039ZM98.875 4.72656L98.875 7.78516L93.707 7.78516L93.707 22L90.0742 22L90.0742 7.78516L84.8828 7.78516L84.8828 4.72656L98.875 4.72656ZM104.512 22L111.203 4.19922L113.98 4.19922L107.266 22L104.512 22ZM124.703 10.8438Q126.32 12.8711 126.32 15.6367Q126.32 18.4492 124.703 20.4473Q123.086 22.4453 119.793 22.4453Q116.5 22.4453 114.883 20.4473Q113.266 18.4492 113.266 15.6367Q113.266 12.8711 114.883 10.8438Q116.5 8.81641 119.793 8.81641Q123.086 8.81641 124.703 10.8438ZM119.781 11.6406Q118.316 11.6406 117.525 12.6777Q116.734 13.7148 116.734 15.6367Q116.734 17.5586 117.525 18.6016Q118.316 19.6445 119.781 19.6445Q121.246 19.6445 122.031 18.6016Q122.816 17.5586 122.816 15.6367Q122.816 13.7148 122.031 12.6777Q121.246 11.6406 119.781 11.6406ZM135.133 12.3086Q133.117 12.3086 132.426 13.6211Q132.039 14.3594 132.039 15.8945L132.039 22L128.676 22L128.676 9.22656L131.863 9.22656L131.863 11.4531Q132.637 10.1758 133.211 9.70703Q134.148 8.92188 135.648 8.92188Q135.742 8.92188 135.807 8.92773Q135.871 8.93359 136.094 8.94531L136.094 12.3672Q135.777 12.332 135.531 12.3203Q135.285 12.3086 135.133 12.3086ZM149.676 4.75L149.676 22L146.43 22L146.43 20.2305Q145.715 21.3672 144.801 21.8828Q143.887 22.3984 142.527 22.3984Q140.289 22.3984 138.76 20.5879Q137.23 18.7773 137.23 15.9414Q137.23 12.6719 138.736 10.7969Q140.242 8.92188 142.762 8.92188Q143.922 8.92188 144.824 9.43164Q145.727 9.94141 146.289 10.8438L146.289 4.75L149.676 4.75ZM140.676 15.6953Q140.676 17.4648 141.379 18.5195Q142.07 19.5859 143.488 19.5859Q144.906 19.5859 145.645 18.5312Q146.383 17.4766 146.383 15.8008Q146.383 13.457 145.199 12.4492Q144.473 11.8398 143.512 11.8398Q142.047 11.8398 141.361 12.9473Q140.676 14.0547 140.676 15.6953ZM163.645 18.25Q163.516 19.3867 162.461 20.5586Q160.82 22.4219 157.867 22.4219Q155.43 22.4219 153.566 20.8516Q151.703 19.2812 151.703 15.7422Q151.703 12.4258 153.385 10.6562Q155.066 8.88672 157.75 8.88672Q159.344 8.88672 160.621 9.48438Q161.898 10.082 162.73 11.3711Q163.48 12.5078 163.703 14.0078Q163.832 14.8867 163.809 16.5391L155.066 16.5391Q155.137 18.4609 156.273 19.2344Q156.965 19.7148 157.938 19.7148Q158.969 19.7148 159.613 19.1289Q159.965 18.8125 160.234 18.25L163.645 18.25ZM160.34 14.3359Q160.258 13.0117 159.537 12.3262Q158.816 11.6406 157.75 11.6406Q156.59 11.6406 155.951 12.3672Q155.312 13.0938 155.148 14.3359L160.34 14.3359ZM172.48 12.3086Q170.465 12.3086 169.773 13.6211Q169.387 14.3594 169.387 15.8945L169.387 22L166.023 22L166.023 9.22656L169.211 9.22656L169.211 11.4531Q169.984 10.1758 170.559 9.70703Q171.496 8.92188 172.996 8.92188Q173.09 8.92188 173.154 8.92773Q173.219 8.93359 173.441 8.94531L173.441 12.3672Q173.125 12.332 172.879 12.3203Q172.633 12.3086 172.48 12.3086ZM184.199 9.8125Q185.699 10.7734 185.922 13.1172L182.582 13.1172Q182.512 12.4727 182.219 12.0977Q181.668 11.418 180.344 11.418Q179.254 11.418 178.791 11.7578Q178.328 12.0977 178.328 12.5547Q178.328 13.1289 178.82 13.3867Q179.312 13.6562 182.301 14.3125Q184.293 14.7812 185.289 15.7305Q186.273 16.6914 186.273 18.1328Q186.273 20.0312 184.861 21.2324Q183.449 22.4336 180.496 22.4336Q177.484 22.4336 176.049 21.1621Q174.613 19.8906 174.613 17.9219L178 17.9219Q178.105 18.8125 178.457 19.1875Q179.078 19.8555 180.754 19.8555Q181.738 19.8555 182.318 19.5625Q182.898 19.2695 182.898 18.6836Q182.898 18.1211 182.43 17.8281Q181.961 17.5352 178.949 16.8203Q176.781 16.2812 175.891 15.4727Q175 14.6758 175 13.1758Q175 11.4062 176.389 10.1348Q177.777 8.86328 180.297 8.86328Q182.688 8.86328 184.199 9.8125Z" fill="#009411" paint-order="stroke" transform="translate(288.5313 246.8603)" opacity="0"><animate keyTimes="0;0.5357;0.5357;0.7071;0.7071;1" calcMode="linear" dur="6222.6667ms" repeatCount="indefinite" attributeName="opacity" values="0;0;1;1;0;0"></animate></path><path d="M52.9785 15.2266L49.252 15.2266L49.252 22L45.7246 22L45.7246 4.72656L54.1973 4.72656Q56.0137 4.76172 56.9922 5.17188Q57.9707 5.58203 58.6504 6.37891Q59.2129 7.03516 59.541 7.83203Q59.8691 8.62891 59.8691 9.64844Q59.8691 10.8789 59.248 12.0684Q58.627 13.2578 57.1973 13.75Q58.3926 14.2305 58.8906 15.1152Q59.3887 16 59.3887 17.8164L59.3887 18.9766Q59.3887 20.1602 59.4824 20.582Q59.623 21.25 60.1387 21.5664L60.1387 22L56.166 22Q56.002 21.4258 55.9316 21.0742Q55.791 20.3477 55.7793 19.5859L55.7559 17.9805Q55.7324 16.3281 55.1523 15.7773Q54.5723 15.2266 52.9785 15.2266ZM55.1699 12.0859Q56.248 11.5938 56.248 10.1406Q56.248 8.57031 55.2051 8.03125Q54.6191 7.72656 53.4473 7.72656L49.252 7.72656L49.252 12.3672L53.3418 12.3672Q54.5605 12.3672 55.1699 12.0859ZM74.998 14.4531L66.6074 14.4531L66.6074 18.8945L76.1699 18.8945L76.1699 22L63.0801 22L63.0801 4.72656L75.748 4.72656L75.748 7.78516L66.6074 7.78516L66.6074 11.4531L74.998 11.4531L74.998 14.4531ZM85.252 19.5039Q86.5293 19.5039 87.3262 19.2227Q88.8379 18.6836 88.8379 17.2188Q88.8379 16.3633 88.0879 15.8945Q87.3379 15.4375 85.7324 15.0859L83.9043 14.6758Q81.209 14.0664 80.1777 13.3516Q78.4316 12.1562 78.4316 9.61328Q78.4316 7.29297 80.1191 5.75781Q81.8066 4.22266 85.0762 4.22266Q87.8066 4.22266 89.7344 5.66992Q91.6621 7.11719 91.7559 9.87109L88.2871 9.87109Q88.1934 8.3125 86.9277 7.65625Q86.084 7.22266 84.8301 7.22266Q83.4355 7.22266 82.6035 7.78516Q81.7715 8.34766 81.7715 9.35547Q81.7715 10.2812 82.5918 10.7383Q83.1191 11.043 84.8418 11.4531L87.8184 12.168Q89.7754 12.6367 90.7715 13.4219Q92.3184 14.6406 92.3184 16.9492Q92.3184 19.3164 90.5078 20.8809Q88.6973 22.4453 85.3926 22.4453Q82.0176 22.4453 80.084 20.9043Q78.1504 19.3633 78.1504 16.668L81.5957 16.668Q81.7598 17.8516 82.2402 18.4375Q83.1191 19.5039 85.252 19.5039ZM102.326 15.7891L98.6582 15.7891L98.6582 22L95.0723 22L95.0723 4.72656L102.596 4.72656Q105.197 4.72656 106.744 6.0625Q108.291 7.39844 108.291 10.1992Q108.291 13.2578 106.744 14.5234Q105.197 15.7891 102.326 15.7891ZM104.014 12.1914Q104.717 11.5703 104.717 10.2227Q104.717 8.875 104.008 8.30078Q103.299 7.72656 102.021 7.72656L98.6582 7.72656L98.6582 12.8125L102.021 12.8125Q103.299 12.8125 104.014 12.1914ZM118.639 22.4805Q114.936 22.4805 112.979 20.4648Q110.354 17.9922 110.354 13.3398Q110.354 8.59375 112.979 6.21484Q114.936 4.19922 118.639 4.19922Q122.342 4.19922 124.299 6.21484Q126.912 8.59375 126.912 13.3398Q126.912 17.9922 124.299 20.4648Q122.342 22.4805 118.639 22.4805ZM122.049 17.8398Q123.303 16.2578 123.303 13.3398Q123.303 10.4336 122.043 8.8457Q120.783 7.25781 118.639 7.25781Q116.494 7.25781 115.217 8.83984Q113.939 10.4219 113.939 13.3398Q113.939 16.2578 115.217 17.8398Q116.494 19.4219 118.639 19.4219Q120.783 19.4219 122.049 17.8398ZM143.635 22L140.025 22L132.971 9.73047L132.971 22L129.607 22L129.607 4.72656L133.393 4.72656L140.271 16.7852L140.271 4.72656L143.635 4.72656L143.635 22ZM153.268 19.5039Q154.545 19.5039 155.342 19.2227Q156.854 18.6836 156.854 17.2188Q156.854 16.3633 156.104 15.8945Q155.354 15.4375 153.748 15.0859L151.92 14.6758Q149.225 14.0664 148.193 13.3516Q146.447 12.1562 146.447 9.61328Q146.447 7.29297 148.135 5.75781Q149.822 4.22266 153.092 4.22266Q155.822 4.22266 157.75 5.66992Q159.678 7.11719 159.771 9.87109L156.303 9.87109Q156.209 8.3125 154.943 7.65625Q154.1 7.22266 152.846 7.22266Q151.451 7.22266 150.619 7.78516Q149.787 8.34766 149.787 9.35547Q149.787 10.2812 150.607 10.7383Q151.135 11.043 152.857 11.4531L155.834 12.168Q157.791 12.6367 158.787 13.4219Q160.334 14.6406 160.334 16.9492Q160.334 19.3164 158.523 20.8809Q156.713 22.4453 153.408 22.4453Q150.033 22.4453 148.1 20.9043Q146.166 19.3633 146.166 16.668L149.611 16.668Q149.775 17.8516 150.256 18.4375Q151.135 19.5039 153.268 19.5039ZM175.029 14.4531L166.639 14.4531L166.639 18.8945L176.201 18.8945L176.201 22L163.111 22L163.111 4.72656L175.779 4.72656L175.779 7.78516L166.639 7.78516L166.639 11.4531L175.029 11.4531L175.029 14.4531Z" fill="#009411" paint-order="stroke" transform="translate(288.5313 246.8603)" opacity="0"><animate keyTimes="0;0.2893;0.2893;0.4643;0.4643;0.7857;0.7857;0.9571;0.9571;1" calcMode="linear" dur="6222.6667ms" repeatCount="indefinite" attributeName="opacity" values="0;0;1;1;0;0;1;1;0;0"></animate></path></g></g></svg>
